<svg width="35" height="37" viewBox="0 0 35 37" fill="none" xmlns="http://www.w3.org/2000/svg">
  <path fill-rule="evenodd" clip-rule="evenodd" d="M12.0812 25.5304H22.6104C23.2141 25.5304 23.7041 25.0267 23.7041 24.4062C23.7041 23.7856 23.2141 23.2819 22.6104 23.2819H12.0812C11.4774 23.2819 10.9874 23.7856 10.9874 24.4062C10.9874 25.0267 11.4774 25.5304 12.0812 25.5304Z" fill="black" />
  <path fill-rule="evenodd" clip-rule="evenodd" d="M12.0812 19.2549H22.6104C23.2141 19.2549 23.7041 18.7512 23.7041 18.1306C23.7041 17.5101 23.2141 17.0064 22.6104 17.0064H12.0812C11.4774 17.0064 10.9874 17.5101 10.9874 18.1306C10.9874 18.7512 11.4774 19.2549 12.0812 19.2549Z" fill="black" />
  <path fill-rule="evenodd" clip-rule="evenodd" d="M18.593 12.9939H22.6107C23.2145 12.9939 23.7045 12.4903 23.7045 11.8697C23.7045 11.2491 23.2145 10.7455 22.6107 10.7455H18.593C17.9893 10.7455 17.4993 11.2491 17.4993 11.8697C17.4993 12.4903 17.9893 12.9939 18.593 12.9939Z" fill="black" />
</svg>